solid ASCII
  facet normal 0.000000e+00 1.000000e+00 0.000000e+00
    outer loop
      vertex   -2.750000e+01 1.000000e+00 -3.000000e+01
      vertex   -2.750000e+01 1.000000e+00 3.000000e+01
      vertex   2.750000e+01 1.000000e+00 -3.000000e+01
    endloop
  endfacet
  facet normal 0.000000e+00 1.000000e+00 -0.000000e+00
    outer loop
      vertex   2.750000e+01 1.000000e+00 -3.000000e+01
      vertex   -2.750000e+01 1.000000e+00 3.000000e+01
      vertex   2.750000e+01 1.000000e+00 3.000000e+01
    endloop
  endfacet
  facet normal 0.000000e+00 0.000000e+00 -1.000000e+00
    outer loop
      vertex   2.750000e+01 1.000000e+00 3.000000e+01
      vertex   -2.750000e+01 1.000000e+00 3.000000e+01
      vertex   2.750000e+01 2.000000e+01 3.000000e+01
    endloop
  endfacet
  facet normal -0.000000e+00 0.000000e+00 -1.000000e+00
    outer loop
      vertex   2.750000e+01 2.000000e+01 3.000000e+01
      vertex   -2.750000e+01 1.000000e+00 3.000000e+01
      vertex   -2.750000e+01 2.000000e+01 3.000000e+01
    endloop
  endfacet
  facet normal 1.000000e+00 -0.000000e+00 0.000000e+00
    outer loop
      vertex   -2.750000e+01 1.000000e+00 3.000000e+01
      vertex   -2.750000e+01 1.000000e+00 -3.000000e+01
      vertex   -2.750000e+01 2.000000e+01 3.000000e+01
    endloop
  endfacet
  facet normal 1.000000e+00 0.000000e+00 0.000000e+00
    outer loop
      vertex   -2.750000e+01 2.000000e+01 3.000000e+01
      vertex   -2.750000e+01 1.000000e+00 -3.000000e+01
      vertex   -2.750000e+01 2.000000e+01 -3.000000e+01
    endloop
  endfacet
  facet normal -1.000000e+00 0.000000e+00 0.000000e+00
    outer loop
      vertex   2.750000e+01 1.000000e+00 -3.000000e+01
      vertex   2.750000e+01 1.000000e+00 3.000000e+01
      vertex   2.750000e+01 2.000000e+01 -3.000000e+01
    endloop
  endfacet
  facet normal -1.000000e+00 0.000000e+00 0.000000e+00
    outer loop
      vertex   2.750000e+01 2.000000e+01 -3.000000e+01
      vertex   2.750000e+01 1.000000e+00 3.000000e+01
      vertex   2.750000e+01 2.000000e+01 3.000000e+01
    endloop
  endfacet
  facet normal 0.000000e+00 0.000000e+00 1.000000e+00
    outer loop
      vertex   -2.750000e+01 1.000000e+00 -3.000000e+01
      vertex   2.750000e+01 1.000000e+00 -3.000000e+01
      vertex   -2.750000e+01 2.000000e+01 -3.000000e+01
    endloop
  endfacet
  facet normal -0.000000e+00 0.000000e+00 1.000000e+00
    outer loop
      vertex   -2.750000e+01 2.000000e+01 -3.000000e+01
      vertex   2.750000e+01 1.000000e+00 -3.000000e+01
      vertex   2.750000e+01 2.000000e+01 -3.000000e+01
    endloop
  endfacet
  facet normal 1.000000e+00 -1.776357e-16 0.000000e+00
    outer loop
      vertex   2.800000e+01 0.000000e+00 3.050000e+01
      vertex   2.800000e+01 0.000000e+00 -3.050000e+01
      vertex   2.800000e+01 2.000000e+01 3.050000e+01
    endloop
  endfacet
  facet normal 1.000000e+00 -1.776357e-16 0.000000e+00
    outer loop
      vertex   2.800000e+01 2.000000e+01 3.050000e+01
      vertex   2.800000e+01 0.000000e+00 -3.050000e+01
      vertex   2.800000e+01 2.000000e+01 -3.050000e+01
    endloop
  endfacet
  facet normal 0.000000e+00 0.000000e+00 1.000000e+00
    outer loop
      vertex   -2.800000e+01 0.000000e+00 3.050000e+01
      vertex   2.800000e+01 0.000000e+00 3.050000e+01
      vertex   -2.800000e+01 2.000000e+01 3.050000e+01
    endloop
  endfacet
  facet normal -0.000000e+00 0.000000e+00 1.000000e+00
    outer loop
      vertex   -2.800000e+01 2.000000e+01 3.050000e+01
      vertex   2.800000e+01 0.000000e+00 3.050000e+01
      vertex   2.800000e+01 2.000000e+01 3.050000e+01
    endloop
  endfacet
  facet normal -1.000000e+00 0.000000e+00 0.000000e+00
    outer loop
      vertex   -2.800000e+01 0.000000e+00 -3.050000e+01
      vertex   -2.800000e+01 0.000000e+00 3.050000e+01
      vertex   -2.800000e+01 2.000000e+01 -3.050000e+01
    endloop
  endfacet
  facet normal -1.000000e+00 0.000000e+00 0.000000e+00
    outer loop
      vertex   -2.800000e+01 2.000000e+01 -3.050000e+01
      vertex   -2.800000e+01 0.000000e+00 3.050000e+01
      vertex   -2.800000e+01 2.000000e+01 3.050000e+01
    endloop
  endfacet
  facet normal 0.000000e+00 0.000000e+00 -1.000000e+00
    outer loop
      vertex   2.800000e+01 0.000000e+00 -3.050000e+01
      vertex   -2.800000e+01 0.000000e+00 -3.050000e+01
      vertex   2.800000e+01 2.000000e+01 -3.050000e+01
    endloop
  endfacet
  facet normal -0.000000e+00 0.000000e+00 -1.000000e+00
    outer loop
      vertex   2.800000e+01 2.000000e+01 -3.050000e+01
      vertex   -2.800000e+01 0.000000e+00 -3.050000e+01
      vertex   -2.800000e+01 2.000000e+01 -3.050000e+01
    endloop
  endfacet
  facet normal 0.000000e+00 1.000000e+00 0.000000e+00
    outer loop
      vertex   2.750000e+01 2.000000e+01 -3.000000e+01
      vertex   -2.800000e+01 2.000000e+01 -3.050000e+01
      vertex   -2.750000e+01 2.000000e+01 -3.000000e+01
    endloop
  endfacet
  facet normal 0.000000e+00 1.000000e+00 0.000000e+00
    outer loop
      vertex   -2.750000e+01 2.000000e+01 -3.000000e+01
      vertex   -2.800000e+01 2.000000e+01 -3.050000e+01
      vertex   -2.800000e+01 2.000000e+01 3.050000e+01
    endloop
  endfacet
  facet normal 0.000000e+00 1.000000e+00 -0.000000e+00
    outer loop
      vertex   -2.750000e+01 2.000000e+01 -3.000000e+01
      vertex   -2.800000e+01 2.000000e+01 3.050000e+01
      vertex   -2.750000e+01 2.000000e+01 3.000000e+01
    endloop
  endfacet
  facet normal 0.000000e+00 1.000000e+00 -0.000000e+00
    outer loop
      vertex   -2.750000e+01 2.000000e+01 3.000000e+01
      vertex   -2.800000e+01 2.000000e+01 3.050000e+01
      vertex   2.750000e+01 2.000000e+01 3.000000e+01
    endloop
  endfacet
  facet normal 0.000000e+00 1.000000e+00 -0.000000e+00
    outer loop
      vertex   2.750000e+01 2.000000e+01 3.000000e+01
      vertex   -2.800000e+01 2.000000e+01 3.050000e+01
      vertex   2.800000e+01 2.000000e+01 3.050000e+01
    endloop
  endfacet
  facet normal -0.000000e+00 1.000000e+00 0.000000e+00
    outer loop
      vertex   2.750000e+01 2.000000e+01 3.000000e+01
      vertex   2.800000e+01 2.000000e+01 3.050000e+01
      vertex   2.800000e+01 2.000000e+01 -3.050000e+01
    endloop
  endfacet
  facet normal 0.000000e+00 1.000000e+00 0.000000e+00
    outer loop
      vertex   -2.800000e+01 2.000000e+01 -3.050000e+01
      vertex   2.750000e+01 2.000000e+01 -3.000000e+01
      vertex   2.800000e+01 2.000000e+01 -3.050000e+01
    endloop
  endfacet
  facet normal 0.000000e+00 1.000000e+00 0.000000e+00
    outer loop
      vertex   2.800000e+01 2.000000e+01 -3.050000e+01
      vertex   2.750000e+01 2.000000e+01 -3.000000e+01
      vertex   2.750000e+01 2.000000e+01 3.000000e+01
    endloop
  endfacet
  facet normal 0.000000e+00 -1.000000e+00 0.000000e+00
    outer loop
      vertex   -2.800000e+01 0.000000e+00 -3.050000e+01
      vertex   2.800000e+01 0.000000e+00 -3.050000e+01
      vertex   -2.800000e+01 0.000000e+00 3.050000e+01
    endloop
  endfacet
  facet normal 0.000000e+00 -1.000000e+00 0.000000e+00
    outer loop
      vertex   -2.800000e+01 0.000000e+00 3.050000e+01
      vertex   2.800000e+01 0.000000e+00 -3.050000e+01
      vertex   2.800000e+01 0.000000e+00 3.050000e+01
    endloop
  endfacet
endsolid
