solid ASCII
  facet normal 0.000000e+00 0.000000e+00 1.000000e+00
    outer loop
      vertex   -7.905176e+00 0.000000e+00 -3.550000e+01
      vertex   1.109482e+01 0.000000e+00 -3.550000e+01
      vertex   -7.905176e+00 1.000000e+00 -3.550000e+01
    endloop
  endfacet
  facet normal -0.000000e+00 0.000000e+00 1.000000e+00
    outer loop
      vertex   -7.905176e+00 1.000000e+00 -3.550000e+01
      vertex   1.109482e+01 0.000000e+00 -3.550000e+01
      vertex   1.109482e+01 1.000000e+00 -3.550000e+01
    endloop
  endfacet
  facet normal -1.000000e+00 0.000000e+00 0.000000e+00
    outer loop
      vertex   1.109482e+01 0.000000e+00 -3.550000e+01
      vertex   1.109482e+01 0.000000e+00 -1.600000e+01
      vertex   1.109482e+01 1.000000e+00 -3.550000e+01
    endloop
  endfacet
  facet normal -1.000000e+00 0.000000e+00 0.000000e+00
    outer loop
      vertex   1.109482e+01 1.000000e+00 -3.550000e+01
      vertex   1.109482e+01 0.000000e+00 -1.600000e+01
      vertex   1.109482e+01 1.000000e+00 -1.600000e+01
    endloop
  endfacet
  facet normal 1.000000e+00 0.000000e+00 -0.000000e+00
    outer loop
      vertex   -7.905176e+00 1.000000e+00 -3.550000e+01
      vertex   -7.905176e+00 1.000000e+00 -1.600000e+01
      vertex   -7.905176e+00 0.000000e+00 -3.550000e+01
    endloop
  endfacet
  facet normal 1.000000e+00 0.000000e+00 0.000000e+00
    outer loop
      vertex   -7.905176e+00 0.000000e+00 -3.550000e+01
      vertex   -7.905176e+00 1.000000e+00 -1.600000e+01
      vertex   -7.905176e+00 0.000000e+00 -1.600000e+01
    endloop
  endfacet
  facet normal 0.000000e+00 0.000000e+00 -1.000000e+00
    outer loop
      vertex   1.109482e+01 0.000000e+00 -1.600000e+01
      vertex   -7.905176e+00 0.000000e+00 -1.600000e+01
      vertex   1.109482e+01 1.000000e+00 -1.600000e+01
    endloop
  endfacet
  facet normal -0.000000e+00 0.000000e+00 -1.000000e+00
    outer loop
      vertex   1.109482e+01 1.000000e+00 -1.600000e+01
      vertex   -7.905176e+00 0.000000e+00 -1.600000e+01
      vertex   -7.905176e+00 1.000000e+00 -1.600000e+01
    endloop
  endfacet
  facet normal 0.000000e+00 1.000000e+00 0.000000e+00
    outer loop
      vertex   1.109482e+01 1.000000e+00 -3.550000e+01
      vertex   2.000000e+01 1.000000e+00 -4.400000e+01
      vertex   -7.905176e+00 1.000000e+00 -3.550000e+01
    endloop
  endfacet
  facet normal 0.000000e+00 1.000000e+00 0.000000e+00
    outer loop
      vertex   -7.905176e+00 1.000000e+00 -3.550000e+01
      vertex   2.000000e+01 1.000000e+00 -4.400000e+01
      vertex   -1.700000e+01 1.000000e+00 -4.400000e+01
    endloop
  endfacet
  facet normal 0.000000e+00 1.000000e+00 0.000000e+00
    outer loop
      vertex   -7.905176e+00 1.000000e+00 -3.550000e+01
      vertex   -1.700000e+01 1.000000e+00 -4.400000e+01
      vertex   -1.700000e+01 1.000000e+00 -1.600000e+01
    endloop
  endfacet
  facet normal 0.000000e+00 1.000000e+00 -0.000000e+00
    outer loop
      vertex   2.000000e+01 1.000000e+00 -4.400000e+01
      vertex   1.109482e+01 1.000000e+00 -3.550000e+01
      vertex   2.000000e+01 1.000000e+00 -1.600000e+01
    endloop
  endfacet
  facet normal 0.000000e+00 1.000000e+00 0.000000e+00
    outer loop
      vertex   2.000000e+01 1.000000e+00 -1.600000e+01
      vertex   1.109482e+01 1.000000e+00 -3.550000e+01
      vertex   1.109482e+01 1.000000e+00 -1.600000e+01
    endloop
  endfacet
  facet normal 0.000000e+00 1.000000e+00 -0.000000e+00
    outer loop
      vertex   2.000000e+01 1.000000e+00 -1.600000e+01
      vertex   1.109482e+01 1.000000e+00 -1.600000e+01
      vertex   3.000000e+01 1.000000e+00 1.000000e+01
    endloop
  endfacet
  facet normal 0.000000e+00 1.000000e+00 0.000000e+00
    outer loop
      vertex   3.000000e+01 1.000000e+00 1.000000e+01
      vertex   1.109482e+01 1.000000e+00 -1.600000e+01
      vertex   -7.905176e+00 1.000000e+00 -1.600000e+01
    endloop
  endfacet
  facet normal 0.000000e+00 1.000000e+00 0.000000e+00
    outer loop
      vertex   3.000000e+01 1.000000e+00 1.000000e+01
      vertex   -7.905176e+00 1.000000e+00 -1.600000e+01
      vertex   -2.700000e+01 1.000000e+00 1.000000e+01
    endloop
  endfacet
  facet normal 0.000000e+00 1.000000e+00 0.000000e+00
    outer loop
      vertex   -2.700000e+01 1.000000e+00 1.000000e+01
      vertex   -7.905176e+00 1.000000e+00 -1.600000e+01
      vertex   -1.700000e+01 1.000000e+00 -1.600000e+01
    endloop
  endfacet
  facet normal 0.000000e+00 1.000000e+00 0.000000e+00
    outer loop
      vertex   -2.700000e+01 1.000000e+00 1.000000e+01
      vertex   -1.700000e+01 1.000000e+00 -1.600000e+01
      vertex   -2.700000e+01 1.000000e+00 -1.600000e+01
    endloop
  endfacet
  facet normal 0.000000e+00 1.000000e+00 0.000000e+00
    outer loop
      vertex   -7.905176e+00 1.000000e+00 -1.600000e+01
      vertex   -7.905176e+00 1.000000e+00 -3.550000e+01
      vertex   -1.700000e+01 1.000000e+00 -1.600000e+01
    endloop
  endfacet
  facet normal 0.000000e+00 1.000000e+00 0.000000e+00
    outer loop
      vertex   3.000000e+01 1.000000e+00 1.000000e+01
      vertex   3.000000e+01 1.000000e+00 -1.600000e+01
      vertex   2.000000e+01 1.000000e+00 -1.600000e+01
    endloop
  endfacet
  facet normal 1.000000e+00 -0.000000e+00 0.000000e+00
    outer loop
      vertex   -2.700000e+01 1.000000e+00 1.000000e+01
      vertex   -2.700000e+01 1.000000e+00 -1.600000e+01
      vertex   -2.700000e+01 1.700000e+01 1.000000e+01
    endloop
  endfacet
  facet normal 1.000000e+00 0.000000e+00 0.000000e+00
    outer loop
      vertex   -2.700000e+01 1.700000e+01 1.000000e+01
      vertex   -2.700000e+01 1.000000e+00 -1.600000e+01
      vertex   -2.700000e+01 1.700000e+01 -1.600000e+01
    endloop
  endfacet
  facet normal 0.000000e+00 0.000000e+00 1.000000e+00
    outer loop
      vertex   -2.700000e+01 1.000000e+00 -1.600000e+01
      vertex   -1.700000e+01 1.000000e+00 -1.600000e+01
      vertex   -2.700000e+01 1.700000e+01 -1.600000e+01
    endloop
  endfacet
  facet normal -0.000000e+00 0.000000e+00 1.000000e+00
    outer loop
      vertex   -2.700000e+01 1.700000e+01 -1.600000e+01
      vertex   -1.700000e+01 1.000000e+00 -1.600000e+01
      vertex   -1.700000e+01 1.700000e+01 -1.600000e+01
    endloop
  endfacet
  facet normal 1.000000e+00 -0.000000e+00 0.000000e+00
    outer loop
      vertex   -1.700000e+01 1.000000e+00 -1.600000e+01
      vertex   -1.700000e+01 1.000000e+00 -4.400000e+01
      vertex   -1.700000e+01 1.700000e+01 -1.600000e+01
    endloop
  endfacet
  facet normal 1.000000e+00 0.000000e+00 0.000000e+00
    outer loop
      vertex   -1.700000e+01 1.700000e+01 -1.600000e+01
      vertex   -1.700000e+01 1.000000e+00 -4.400000e+01
      vertex   -1.700000e+01 1.700000e+01 -4.400000e+01
    endloop
  endfacet
  facet normal 0.000000e+00 0.000000e+00 1.000000e+00
    outer loop
      vertex   -1.700000e+01 1.000000e+00 -4.400000e+01
      vertex   2.000000e+01 1.000000e+00 -4.400000e+01
      vertex   -1.700000e+01 1.700000e+01 -4.400000e+01
    endloop
  endfacet
  facet normal -0.000000e+00 0.000000e+00 1.000000e+00
    outer loop
      vertex   -1.700000e+01 1.700000e+01 -4.400000e+01
      vertex   2.000000e+01 1.000000e+00 -4.400000e+01
      vertex   2.000000e+01 1.700000e+01 -4.400000e+01
    endloop
  endfacet
  facet normal 0.000000e+00 1.000000e+00 0.000000e+00
    outer loop
      vertex   3.000000e+01 1.700000e+01 1.000000e+01
      vertex   3.100000e+01 1.700000e+01 -1.700000e+01
      vertex   3.000000e+01 1.700000e+01 -1.600000e+01
    endloop
  endfacet
  facet normal 0.000000e+00 1.000000e+00 0.000000e+00
    outer loop
      vertex   3.000000e+01 1.700000e+01 -1.600000e+01
      vertex   3.100000e+01 1.700000e+01 -1.700000e+01
      vertex   2.100000e+01 1.700000e+01 -1.700000e+01
    endloop
  endfacet
  facet normal 0.000000e+00 1.000000e+00 0.000000e+00
    outer loop
      vertex   3.000000e+01 1.700000e+01 -1.600000e+01
      vertex   2.100000e+01 1.700000e+01 -1.700000e+01
      vertex   2.000000e+01 1.700000e+01 -1.600000e+01
    endloop
  endfacet
  facet normal 0.000000e+00 1.000000e+00 0.000000e+00
    outer loop
      vertex   2.000000e+01 1.700000e+01 -1.600000e+01
      vertex   2.100000e+01 1.700000e+01 -1.700000e+01
      vertex   2.000000e+01 1.700000e+01 -4.400000e+01
    endloop
  endfacet
  facet normal -0.000000e+00 1.000000e+00 0.000000e+00
    outer loop
      vertex   2.000000e+01 1.700000e+01 -4.400000e+01
      vertex   2.100000e+01 1.700000e+01 -1.700000e+01
      vertex   2.100000e+01 1.700000e+01 -4.500000e+01
    endloop
  endfacet
  facet normal 0.000000e+00 1.000000e+00 0.000000e+00
    outer loop
      vertex   2.000000e+01 1.700000e+01 -4.400000e+01
      vertex   2.100000e+01 1.700000e+01 -4.500000e+01
      vertex   -1.700000e+01 1.700000e+01 -4.400000e+01
    endloop
  endfacet
  facet normal 0.000000e+00 1.000000e+00 0.000000e+00
    outer loop
      vertex   -1.700000e+01 1.700000e+01 -4.400000e+01
      vertex   2.100000e+01 1.700000e+01 -4.500000e+01
      vertex   -1.800000e+01 1.700000e+01 -4.500000e+01
    endloop
  endfacet
  facet normal 0.000000e+00 1.000000e+00 0.000000e+00
    outer loop
      vertex   -1.700000e+01 1.700000e+01 -4.400000e+01
      vertex   -1.800000e+01 1.700000e+01 -4.500000e+01
      vertex   -1.800000e+01 1.700000e+01 -1.700000e+01
    endloop
  endfacet
  facet normal 0.000000e+00 1.000000e+00 -0.000000e+00
    outer loop
      vertex   3.100000e+01 1.700000e+01 -1.700000e+01
      vertex   3.000000e+01 1.700000e+01 1.000000e+01
      vertex   3.100000e+01 1.700000e+01 1.100000e+01
    endloop
  endfacet
  facet normal 0.000000e+00 1.000000e+00 0.000000e+00
    outer loop
      vertex   3.100000e+01 1.700000e+01 1.100000e+01
      vertex   3.000000e+01 1.700000e+01 1.000000e+01
      vertex   -2.700000e+01 1.700000e+01 1.000000e+01
    endloop
  endfacet
  facet normal 0.000000e+00 1.000000e+00 0.000000e+00
    outer loop
      vertex   3.100000e+01 1.700000e+01 1.100000e+01
      vertex   -2.700000e+01 1.700000e+01 1.000000e+01
      vertex   -2.800000e+01 1.700000e+01 1.100000e+01
    endloop
  endfacet
  facet normal 0.000000e+00 1.000000e+00 0.000000e+00
    outer loop
      vertex   -2.800000e+01 1.700000e+01 1.100000e+01
      vertex   -2.700000e+01 1.700000e+01 1.000000e+01
      vertex   -2.800000e+01 1.700000e+01 -1.700000e+01
    endloop
  endfacet
  facet normal 0.000000e+00 1.000000e+00 0.000000e+00
    outer loop
      vertex   -2.800000e+01 1.700000e+01 -1.700000e+01
      vertex   -2.700000e+01 1.700000e+01 1.000000e+01
      vertex   -2.700000e+01 1.700000e+01 -1.600000e+01
    endloop
  endfacet
  facet normal 0.000000e+00 1.000000e+00 0.000000e+00
    outer loop
      vertex   -2.800000e+01 1.700000e+01 -1.700000e+01
      vertex   -2.700000e+01 1.700000e+01 -1.600000e+01
      vertex   -1.800000e+01 1.700000e+01 -1.700000e+01
    endloop
  endfacet
  facet normal 0.000000e+00 1.000000e+00 -0.000000e+00
    outer loop
      vertex   -1.800000e+01 1.700000e+01 -1.700000e+01
      vertex   -2.700000e+01 1.700000e+01 -1.600000e+01
      vertex   -1.700000e+01 1.700000e+01 -1.600000e+01
    endloop
  endfacet
  facet normal -0.000000e+00 1.000000e+00 0.000000e+00
    outer loop
      vertex   -1.800000e+01 1.700000e+01 -1.700000e+01
      vertex   -1.700000e+01 1.700000e+01 -1.600000e+01
      vertex   -1.700000e+01 1.700000e+01 -4.400000e+01
    endloop
  endfacet
  facet normal 0.000000e+00 -2.220446e-16 1.000000e+00
    outer loop
      vertex   2.000000e+01 1.000000e+00 -1.600000e+01
      vertex   3.000000e+01 1.000000e+00 -1.600000e+01
      vertex   2.000000e+01 1.700000e+01 -1.600000e+01
    endloop
  endfacet
  facet normal 0.000000e+00 -2.220446e-16 1.000000e+00
    outer loop
      vertex   2.000000e+01 1.700000e+01 -1.600000e+01
      vertex   3.000000e+01 1.000000e+00 -1.600000e+01
      vertex   3.000000e+01 1.700000e+01 -1.600000e+01
    endloop
  endfacet
  facet normal -1.000000e+00 0.000000e+00 0.000000e+00
    outer loop
      vertex   2.000000e+01 1.000000e+00 -4.400000e+01
      vertex   2.000000e+01 1.000000e+00 -1.600000e+01
      vertex   2.000000e+01 1.700000e+01 -4.400000e+01
    endloop
  endfacet
  facet normal -1.000000e+00 0.000000e+00 0.000000e+00
    outer loop
      vertex   2.000000e+01 1.700000e+01 -4.400000e+01
      vertex   2.000000e+01 1.000000e+00 -1.600000e+01
      vertex   2.000000e+01 1.700000e+01 -1.600000e+01
    endloop
  endfacet
  facet normal 0.000000e+00 0.000000e+00 -1.000000e+00
    outer loop
      vertex   3.000000e+01 1.000000e+00 1.000000e+01
      vertex   -2.700000e+01 1.000000e+00 1.000000e+01
      vertex   3.000000e+01 1.700000e+01 1.000000e+01
    endloop
  endfacet
  facet normal -0.000000e+00 0.000000e+00 -1.000000e+00
    outer loop
      vertex   3.000000e+01 1.700000e+01 1.000000e+01
      vertex   -2.700000e+01 1.000000e+00 1.000000e+01
      vertex   -2.700000e+01 1.700000e+01 1.000000e+01
    endloop
  endfacet
  facet normal -1.000000e+00 0.000000e+00 0.000000e+00
    outer loop
      vertex   3.000000e+01 1.000000e+00 -1.600000e+01
      vertex   3.000000e+01 1.000000e+00 1.000000e+01
      vertex   3.000000e+01 1.700000e+01 -1.600000e+01
    endloop
  endfacet
  facet normal -1.000000e+00 0.000000e+00 0.000000e+00
    outer loop
      vertex   3.000000e+01 1.700000e+01 -1.600000e+01
      vertex   3.000000e+01 1.000000e+00 1.000000e+01
      vertex   3.000000e+01 1.700000e+01 1.000000e+01
    endloop
  endfacet
  facet normal -1.000000e+00 0.000000e+00 0.000000e+00
    outer loop
      vertex   -2.800000e+01 0.000000e+00 -1.700000e+01
      vertex   -2.800000e+01 0.000000e+00 1.100000e+01
      vertex   -2.800000e+01 1.700000e+01 -1.700000e+01
    endloop
  endfacet
  facet normal -1.000000e+00 0.000000e+00 0.000000e+00
    outer loop
      vertex   -2.800000e+01 1.700000e+01 -1.700000e+01
      vertex   -2.800000e+01 0.000000e+00 1.100000e+01
      vertex   -2.800000e+01 1.700000e+01 1.100000e+01
    endloop
  endfacet
  facet normal 0.000000e+00 0.000000e+00 -1.000000e+00
    outer loop
      vertex   -1.800000e+01 0.000000e+00 -1.700000e+01
      vertex   -2.800000e+01 0.000000e+00 -1.700000e+01
      vertex   -1.800000e+01 1.700000e+01 -1.700000e+01
    endloop
  endfacet
  facet normal -0.000000e+00 0.000000e+00 -1.000000e+00
    outer loop
      vertex   -1.800000e+01 1.700000e+01 -1.700000e+01
      vertex   -2.800000e+01 0.000000e+00 -1.700000e+01
      vertex   -2.800000e+01 1.700000e+01 -1.700000e+01
    endloop
  endfacet
  facet normal -1.000000e+00 0.000000e+00 0.000000e+00
    outer loop
      vertex   -1.800000e+01 0.000000e+00 -4.500000e+01
      vertex   -1.800000e+01 0.000000e+00 -1.700000e+01
      vertex   -1.800000e+01 1.700000e+01 -4.500000e+01
    endloop
  endfacet
  facet normal -1.000000e+00 0.000000e+00 0.000000e+00
    outer loop
      vertex   -1.800000e+01 1.700000e+01 -4.500000e+01
      vertex   -1.800000e+01 0.000000e+00 -1.700000e+01
      vertex   -1.800000e+01 1.700000e+01 -1.700000e+01
    endloop
  endfacet
  facet normal 0.000000e+00 0.000000e+00 -1.000000e+00
    outer loop
      vertex   2.100000e+01 0.000000e+00 -4.500000e+01
      vertex   -1.800000e+01 0.000000e+00 -4.500000e+01
      vertex   2.100000e+01 1.700000e+01 -4.500000e+01
    endloop
  endfacet
  facet normal -0.000000e+00 0.000000e+00 -1.000000e+00
    outer loop
      vertex   2.100000e+01 1.700000e+01 -4.500000e+01
      vertex   -1.800000e+01 0.000000e+00 -4.500000e+01
      vertex   -1.800000e+01 1.700000e+01 -4.500000e+01
    endloop
  endfacet
  facet normal 1.000000e+00 -0.000000e+00 0.000000e+00
    outer loop
      vertex   2.100000e+01 0.000000e+00 -1.700000e+01
      vertex   2.100000e+01 0.000000e+00 -4.500000e+01
      vertex   2.100000e+01 1.700000e+01 -1.700000e+01
    endloop
  endfacet
  facet normal 1.000000e+00 0.000000e+00 0.000000e+00
    outer loop
      vertex   2.100000e+01 1.700000e+01 -1.700000e+01
      vertex   2.100000e+01 0.000000e+00 -4.500000e+01
      vertex   2.100000e+01 1.700000e+01 -4.500000e+01
    endloop
  endfacet
  facet normal 1.639128e-08 0.000000e+00 -1.000000e+00
    outer loop
      vertex   3.100000e+01 0.000000e+00 -1.700000e+01
      vertex   2.100000e+01 0.000000e+00 -1.700000e+01
      vertex   3.100000e+01 1.700000e+01 -1.700000e+01
    endloop
  endfacet
  facet normal 1.639128e-08 0.000000e+00 -1.000000e+00
    outer loop
      vertex   3.100000e+01 1.700000e+01 -1.700000e+01
      vertex   2.100000e+01 0.000000e+00 -1.700000e+01
      vertex   2.100000e+01 1.700000e+01 -1.700000e+01
    endloop
  endfacet
  facet normal 1.000000e+00 -0.000000e+00 0.000000e+00
    outer loop
      vertex   3.100000e+01 0.000000e+00 1.100000e+01
      vertex   3.100000e+01 0.000000e+00 -1.700000e+01
      vertex   3.100000e+01 1.700000e+01 1.100000e+01
    endloop
  endfacet
  facet normal 1.000000e+00 0.000000e+00 0.000000e+00
    outer loop
      vertex   3.100000e+01 1.700000e+01 1.100000e+01
      vertex   3.100000e+01 0.000000e+00 -1.700000e+01
      vertex   3.100000e+01 1.700000e+01 -1.700000e+01
    endloop
  endfacet
  facet normal 0.000000e+00 0.000000e+00 1.000000e+00
    outer loop
      vertex   -2.800000e+01 0.000000e+00 1.100000e+01
      vertex   3.100000e+01 0.000000e+00 1.100000e+01
      vertex   -2.800000e+01 1.700000e+01 1.100000e+01
    endloop
  endfacet
  facet normal -0.000000e+00 0.000000e+00 1.000000e+00
    outer loop
      vertex   -2.800000e+01 1.700000e+01 1.100000e+01
      vertex   3.100000e+01 0.000000e+00 1.100000e+01
      vertex   3.100000e+01 1.700000e+01 1.100000e+01
    endloop
  endfacet
  facet normal 0.000000e+00 -1.000000e+00 -0.000000e+00
    outer loop
      vertex   -7.905176e+00 0.000000e+00 -1.600000e+01
      vertex   -1.800000e+01 0.000000e+00 -1.700000e+01
      vertex   -7.905176e+00 0.000000e+00 -3.550000e+01
    endloop
  endfacet
  facet normal -0.000000e+00 -1.000000e+00 0.000000e+00
    outer loop
      vertex   -7.905176e+00 0.000000e+00 -3.550000e+01
      vertex   -1.800000e+01 0.000000e+00 -1.700000e+01
      vertex   -1.800000e+01 0.000000e+00 -4.500000e+01
    endloop
  endfacet
  facet normal 0.000000e+00 -1.000000e+00 -0.000000e+00
    outer loop
      vertex   -7.905176e+00 0.000000e+00 -3.550000e+01
      vertex   -1.800000e+01 0.000000e+00 -4.500000e+01
      vertex   2.100000e+01 0.000000e+00 -4.500000e+01
    endloop
  endfacet
  facet normal 0.000000e+00 -1.000000e+00 0.000000e+00
    outer loop
      vertex   1.109482e+01 0.000000e+00 -1.600000e+01
      vertex   3.100000e+01 0.000000e+00 1.100000e+01
      vertex   -7.905176e+00 0.000000e+00 -1.600000e+01
    endloop
  endfacet
  facet normal 0.000000e+00 -1.000000e+00 0.000000e+00
    outer loop
      vertex   -7.905176e+00 0.000000e+00 -1.600000e+01
      vertex   3.100000e+01 0.000000e+00 1.100000e+01
      vertex   -2.800000e+01 0.000000e+00 1.100000e+01
    endloop
  endfacet
  facet normal -0.000000e+00 -1.000000e+00 0.000000e+00
    outer loop
      vertex   -7.905176e+00 0.000000e+00 -1.600000e+01
      vertex   -2.800000e+01 0.000000e+00 1.100000e+01
      vertex   -1.800000e+01 0.000000e+00 -1.700000e+01
    endloop
  endfacet
  facet normal 0.000000e+00 -1.000000e+00 0.000000e+00
    outer loop
      vertex   -1.800000e+01 0.000000e+00 -1.700000e+01
      vertex   -2.800000e+01 0.000000e+00 1.100000e+01
      vertex   -2.800000e+01 0.000000e+00 -1.700000e+01
    endloop
  endfacet
  facet normal 0.000000e+00 -1.000000e+00 0.000000e+00
    outer loop
      vertex   3.100000e+01 0.000000e+00 1.100000e+01
      vertex   1.109482e+01 0.000000e+00 -1.600000e+01
      vertex   2.100000e+01 0.000000e+00 -1.700000e+01
    endloop
  endfacet
  facet normal -0.000000e+00 -1.000000e+00 0.000000e+00
    outer loop
      vertex   2.100000e+01 0.000000e+00 -1.700000e+01
      vertex   1.109482e+01 0.000000e+00 -1.600000e+01
      vertex   1.109482e+01 0.000000e+00 -3.550000e+01
    endloop
  endfacet
  facet normal 0.000000e+00 -1.000000e+00 -0.000000e+00
    outer loop
      vertex   2.100000e+01 0.000000e+00 -1.700000e+01
      vertex   1.109482e+01 0.000000e+00 -3.550000e+01
      vertex   2.100000e+01 0.000000e+00 -4.500000e+01
    endloop
  endfacet
  facet normal 0.000000e+00 -1.000000e+00 0.000000e+00
    outer loop
      vertex   2.100000e+01 0.000000e+00 -4.500000e+01
      vertex   1.109482e+01 0.000000e+00 -3.550000e+01
      vertex   -7.905176e+00 0.000000e+00 -3.550000e+01
    endloop
  endfacet
  facet normal 0.000000e+00 -1.000000e+00 0.000000e+00
    outer loop
      vertex   2.100000e+01 0.000000e+00 -1.700000e+01
      vertex   3.100000e+01 0.000000e+00 -1.700000e+01
      vertex   3.100000e+01 0.000000e+00 1.100000e+01
    endloop
  endfacet
endsolid
